<svg xmlns="http://www.w3.org/2000/svg" viewBox="0 0 5 7"><g id="Réteg_2" data-name="Réteg 2"><g id="Réteg_1" data-name="Réteg 1"><rect x="3" y="6" width="1" height="1"/><rect x="2" y="6" width="1" height="1"/><rect x="1" y="6" width="1" height="1"/><rect x="4" y="5" width="1" height="1"/><rect y="5" width="1" height="1"/><rect x="4" y="4" width="1" height="1"/><rect y="4" width="1" height="1"/><rect x="3" y="3" width="1" height="1"/><rect x="2" y="3" width="1" height="1"/><rect x="1" y="3" width="1" height="1"/><rect x="4" y="2" width="1" height="1"/><rect y="2" width="1" height="1"/><rect x="4" y="1" width="1" height="1"/><rect y="1" width="1" height="1"/><rect x="3" width="1" height="1"/><rect x="2" width="1" height="1"/><rect x="1" width="1" height="1"/></g></g></svg>